<svg width="69" height="20" viewBox="0 0 69 20" fill="none" xmlns="http://www.w3.org/2000/svg">
<path d="M9.71788 13H8.25491L10.9186 5.43392H12.6106L15.2779 13H13.8149L11.7941 6.98556H11.735L9.71788 13ZM9.76591 10.0334H13.7558V11.1343H9.76591V10.0334ZM16.2745 5.43392H17.9517L20.1979 10.9164H20.2866L22.5328 5.43392H24.21V13H22.8948V7.80201H22.8246L20.7336 12.9778H19.7509L17.6599 7.79093H17.5897V13H16.2745V5.43392ZM25.7025 5.43392H27.3798L29.626 10.9164H29.7146L31.9608 5.43392H33.638V13H32.3228V7.80201H32.2527L30.1616 12.9778H29.1789L27.0879 7.79093H27.0177V13H25.7025V5.43392ZM37.7111 13V5.43392H40.5484C41.1296 5.43392 41.6173 5.54229 42.0113 5.75902C42.4079 5.97576 42.7071 6.27377 42.9091 6.65306C43.1135 7.02989 43.2157 7.45844 43.2157 7.93871C43.2157 8.4239 43.1135 8.85491 42.9091 9.23174C42.7047 9.60856 42.403 9.90534 42.004 10.1221C41.605 10.3364 41.1136 10.4435 40.5299 10.4435H38.6495V9.31671H40.3452C40.6851 9.31671 40.9634 9.2576 41.1801 9.13938C41.3969 9.02116 41.5569 8.8586 41.6604 8.65172C41.7663 8.44483 41.8192 8.20716 41.8192 7.93871C41.8192 7.67025 41.7663 7.43381 41.6604 7.22938C41.5569 7.02496 41.3956 6.8661 41.1764 6.75281C40.9597 6.63705 40.6801 6.57917 40.3378 6.57917H39.0817V13H37.7111ZM44.3471 13V7.32544H45.6438V8.2712H45.703C45.8064 7.94363 45.9837 7.69118 46.2349 7.51385C46.4886 7.33406 46.778 7.24416 47.1031 7.24416C47.177 7.24416 47.2595 7.24786 47.3506 7.25525C47.4442 7.26017 47.5218 7.26879 47.5834 7.28111V8.51133C47.5267 8.49163 47.4368 8.47439 47.3137 8.45961C47.193 8.44237 47.076 8.43375 46.9627 8.43375C46.7189 8.43375 46.4997 8.4867 46.3051 8.59261C46.113 8.69605 45.9616 8.84013 45.8507 9.02485C45.7399 9.20957 45.6845 9.42261 45.6845 9.66398V13H44.3471ZM48.4719 13V7.32544H49.8093V13H48.4719ZM49.1443 6.52006C48.9325 6.52006 48.7502 6.44987 48.5975 6.30949C48.4448 6.16664 48.3684 5.99546 48.3684 5.79597C48.3684 5.59401 48.4448 5.42283 48.5975 5.28245C48.7502 5.1396 48.9325 5.06817 49.1443 5.06817C49.3585 5.06817 49.5408 5.1396 49.691 5.28245C49.8437 5.42283 49.9201 5.59401 49.9201 5.79597C49.9201 5.99546 49.8437 6.16664 49.691 6.30949C49.5408 6.44987 49.3585 6.52006 49.1443 6.52006ZM53.6597 13.1108C53.0932 13.1108 52.6068 12.9865 52.2004 12.7377C51.7965 12.4889 51.485 12.1454 51.2658 11.707C51.049 11.2661 50.9407 10.7587 50.9407 10.1849C50.9407 9.60856 51.0515 9.09997 51.2731 8.65911C51.4948 8.21578 51.8076 7.87097 52.2115 7.62468C52.6179 7.37593 53.0982 7.25155 53.6523 7.25155C54.1129 7.25155 54.5205 7.33652 54.8752 7.50646C55.2323 7.67394 55.5168 7.91161 55.7286 8.21948C55.9404 8.52488 56.0611 8.882 56.0906 9.29085H54.8124C54.7606 9.01746 54.6375 8.78964 54.4429 8.60739C54.2508 8.42267 53.9934 8.33031 53.6708 8.33031C53.3974 8.33031 53.1573 8.4042 52.9504 8.55197C52.7435 8.69728 52.5822 8.90663 52.4664 9.18002C52.3531 9.4534 52.2965 9.78097 52.2965 10.1627C52.2965 10.5494 52.3531 10.8819 52.4664 11.1602C52.5797 11.436 52.7386 11.6491 52.943 11.7993C53.1499 11.9471 53.3925 12.021 53.6708 12.021C53.8678 12.021 54.0439 11.984 54.1991 11.9102C54.3567 11.8338 54.4885 11.7242 54.5944 11.5814C54.7003 11.4385 54.773 11.2649 54.8124 11.0605H56.0906C56.0586 11.4619 55.9404 11.8178 55.736 12.1281C55.5315 12.436 55.2532 12.6774 54.901 12.8522C54.5488 13.0246 54.1351 13.1108 53.6597 13.1108ZM59.7009 13.1108C59.132 13.1108 58.6407 12.9926 58.2269 12.7562C57.8156 12.5173 57.4991 12.1798 57.2774 11.7439C57.0558 11.3055 56.9449 10.7895 56.9449 10.196C56.9449 9.61226 57.0558 9.09997 57.2774 8.65911C57.5016 8.21578 57.8143 7.87097 58.2158 7.62468C58.6173 7.37593 59.0889 7.25155 59.6307 7.25155C59.9805 7.25155 60.3105 7.3082 60.6208 7.42149C60.9336 7.53232 61.2095 7.70473 61.4484 7.93871C61.6897 8.17268 61.8794 8.4707 62.0173 8.83274C62.1552 9.19233 62.2242 9.62088 62.2242 10.1184V10.5285H57.573V9.62703H60.9423C60.9398 9.37089 60.8844 9.14307 60.776 8.94358C60.6676 8.74162 60.5162 8.58276 60.3216 8.467C60.1295 8.35124 59.9054 8.29337 59.6492 8.29337C59.3758 8.29337 59.1357 8.35986 58.9288 8.49286C58.7219 8.6234 58.5606 8.7958 58.4449 9.01007C58.3316 9.22188 58.2737 9.45463 58.2712 9.70831V10.4952C58.2712 10.8252 58.3316 11.1085 58.4522 11.3449C58.5729 11.5789 58.7416 11.7587 58.9584 11.8843C59.1751 12.0074 59.4288 12.069 59.7194 12.069C59.914 12.069 60.0901 12.0419 60.2477 11.9877C60.4053 11.9311 60.542 11.8486 60.6578 11.7402C60.7735 11.6318 60.861 11.4976 60.9201 11.3375L62.1688 11.4779C62.09 11.8079 61.9397 12.0961 61.7181 12.3424C61.4989 12.5862 61.2181 12.7759 60.8758 12.9113C60.5334 13.0443 60.1418 13.1108 59.7009 13.1108Z" fill="#FFE600"/>
<rect width="69" height="20" rx="8.66947" fill="#FFE600" fill-opacity="0.15"/>
</svg>
