<svg width="69" height="20" viewBox="0 0 69 20" fill="none" xmlns="http://www.w3.org/2000/svg">
<path d="M25.507 10.217C25.507 11.0322 25.3543 11.7304 25.0489 12.3117C24.7459 12.8905 24.3322 13.3338 23.8076 13.6416C23.2854 13.9495 22.6931 14.1034 22.0306 14.1034C21.368 14.1034 20.7745 13.9495 20.2499 13.6416C19.7277 13.3313 19.314 12.8868 19.0086 12.308C18.7056 11.7267 18.5542 11.0297 18.5542 10.217C18.5542 9.40173 18.7056 8.70473 19.0086 8.12594C19.314 7.54469 19.7277 7.10014 20.2499 6.79227C20.7745 6.48441 21.368 6.33048 22.0306 6.33048C22.6931 6.33048 23.2854 6.48441 23.8076 6.79227C24.3322 7.10014 24.7459 7.54469 25.0489 8.12594C25.3543 8.70473 25.507 9.40173 25.507 10.217ZM24.129 10.217C24.129 9.6431 24.0391 9.15914 23.8593 8.76507C23.682 8.36854 23.4357 8.0693 23.1204 7.86734C22.8052 7.66291 22.4419 7.5607 22.0306 7.5607C21.6193 7.5607 21.256 7.66291 20.9407 7.86734C20.6255 8.0693 20.3779 8.36854 20.1982 8.76507C20.0208 9.15914 19.9322 9.6431 19.9322 10.217C19.9322 10.7908 20.0208 11.276 20.1982 11.6725C20.3779 12.0666 20.6255 12.3659 20.9407 12.5703C21.256 12.7722 21.6193 12.8732 22.0306 12.8732C22.4419 12.8732 22.8052 12.7722 23.1204 12.5703C23.4357 12.3659 23.682 12.0666 23.8593 11.6725C24.0391 11.276 24.129 10.7908 24.129 10.217ZM26.7437 14V8.32544H28.0404V9.2712H28.0995C28.2029 8.94363 28.3803 8.69118 28.6315 8.51385C28.8852 8.33406 29.1746 8.24416 29.4997 8.24416C29.5736 8.24416 29.6561 8.24786 29.7472 8.25525C29.8408 8.26017 29.9184 8.26879 29.9799 8.28111V9.51133C29.9233 9.49163 29.8334 9.47439 29.7102 9.45961C29.5896 9.44237 29.4726 9.43375 29.3593 9.43375C29.1155 9.43375 28.8963 9.4867 28.7017 9.59261C28.5096 9.69605 28.3581 9.84013 28.2473 10.0249C28.1364 10.2096 28.081 10.4226 28.081 10.664V14H26.7437ZM32.3998 14.1145C32.0402 14.1145 31.7163 14.0505 31.4281 13.9224C31.1424 13.7919 30.9158 13.5998 30.7484 13.3461C30.5834 13.0924 30.5008 12.7796 30.5008 12.4077C30.5008 12.0875 30.56 11.8228 30.6782 11.6134C30.7964 11.4041 30.9577 11.2366 31.1621 11.111C31.3666 10.9854 31.5968 10.8906 31.853 10.8265C32.1116 10.76 32.3788 10.712 32.6547 10.6825C32.9872 10.648 33.2568 10.6172 33.4637 10.5901C33.6706 10.5605 33.8209 10.5162 33.9144 10.4571C34.0105 10.3955 34.0585 10.3007 34.0585 10.1726V10.1505C34.0585 9.87215 33.976 9.65665 33.811 9.50394C33.646 9.35124 33.4083 9.27489 33.098 9.27489C32.7704 9.27489 32.5106 9.34632 32.3185 9.48917C32.1288 9.63202 32.0008 9.80073 31.9343 9.9953L30.6856 9.81797C30.7841 9.47316 30.9466 9.185 31.1732 8.95348C31.3998 8.71951 31.6769 8.54464 32.0045 8.42888C32.332 8.31066 32.6941 8.25155 33.0906 8.25155C33.364 8.25155 33.6361 8.28357 33.9071 8.3476C34.178 8.41164 34.4255 8.51755 34.6496 8.66532C34.8738 8.81063 35.0535 9.0089 35.189 9.26012C35.3269 9.51133 35.3959 9.82536 35.3959 10.2022V14H34.1102V13.2205H34.0659C33.9846 13.3781 33.8701 13.5259 33.7223 13.6638C33.577 13.7993 33.3935 13.9089 33.1719 13.9926C32.9527 14.0739 32.6953 14.1145 32.3998 14.1145ZM32.747 13.1318C33.0155 13.1318 33.2482 13.0789 33.4453 12.973C33.6423 12.8646 33.7938 12.7217 33.8997 12.5444C34.008 12.3671 34.0622 12.1737 34.0622 11.9644V11.2957C34.0204 11.3302 33.9489 11.3622 33.8479 11.3918C33.7494 11.4213 33.6386 11.4472 33.5155 11.4694C33.3923 11.4915 33.2704 11.5112 33.1497 11.5285C33.029 11.5457 32.9244 11.5605 32.8357 11.5728C32.6362 11.5999 32.4576 11.6442 32.3 11.7058C32.1424 11.7674 32.018 11.8536 31.9269 11.9644C31.8357 12.0728 31.7902 12.2132 31.7902 12.3856C31.7902 12.6318 31.8801 12.8178 32.0599 12.9434C32.2397 13.069 32.4687 13.1318 32.747 13.1318ZM39.2159 14.1108C38.6494 14.1108 38.163 13.9865 37.7566 13.7377C37.3527 13.4889 37.0411 13.1454 36.8219 12.707C36.6052 12.2661 36.4968 11.7587 36.4968 11.1849C36.4968 10.6086 36.6076 10.1 36.8293 9.65911C37.051 9.21578 37.3638 8.87097 37.7677 8.62468C38.1741 8.37593 38.6543 8.25155 39.2085 8.25155C39.6691 8.25155 40.0767 8.33652 40.4313 8.50646C40.7885 8.67394 41.0729 8.91161 41.2847 9.21948C41.4965 9.52488 41.6172 9.882 41.6468 10.2908H40.3685C40.3168 10.0175 40.1937 9.78964 39.9991 9.60739C39.807 9.42267 39.5496 9.33031 39.227 9.33031C38.9536 9.33031 38.7134 9.4042 38.5066 9.55197C38.2997 9.69728 38.1384 9.90663 38.0226 10.18C37.9093 10.4534 37.8527 10.781 37.8527 11.1627C37.8527 11.5494 37.9093 11.8819 38.0226 12.1602C38.1359 12.436 38.2947 12.6491 38.4992 12.7993C38.7061 12.9471 38.9487 13.021 39.227 13.021C39.424 13.021 39.6001 12.984 39.7553 12.9102C39.9129 12.8338 40.0446 12.7242 40.1506 12.5814C40.2565 12.4385 40.3291 12.2649 40.3685 12.0605H41.6468C41.6148 12.4619 41.4965 12.8178 41.2921 13.1281C41.0877 13.436 40.8094 13.6774 40.4572 13.8522C40.105 14.0246 39.6912 14.1108 39.2159 14.1108ZM44.0823 6.43392V14H42.7449V6.43392H44.0823ZM47.9697 14.1108C47.4008 14.1108 46.9094 13.9926 46.4956 13.7562C46.0843 13.5173 45.7679 13.1798 45.5462 12.7439C45.3245 12.3055 45.2137 11.7895 45.2137 11.196C45.2137 10.6123 45.3245 10.1 45.5462 9.65911C45.7703 9.21578 46.0831 8.87097 46.4846 8.62468C46.886 8.37593 47.3577 8.25155 47.8995 8.25155C48.2492 8.25155 48.5793 8.3082 48.8896 8.42149C49.2024 8.53232 49.4782 8.70473 49.7171 8.93871C49.9585 9.17268 50.1482 9.4707 50.2861 9.83274C50.424 10.1923 50.493 10.6209 50.493 11.1184V11.5285H45.8417V10.627H49.211C49.2085 10.3709 49.1531 10.1431 49.0448 9.94358C48.9364 9.74162 48.7849 9.58276 48.5904 9.467C48.3982 9.35124 48.1741 9.29337 47.918 9.29337C47.6446 9.29337 47.4045 9.35986 47.1976 9.49286C46.9907 9.6234 46.8294 9.7958 46.7136 10.0101C46.6003 10.2219 46.5424 10.4546 46.54 10.7083V11.4952C46.54 11.8252 46.6003 12.1085 46.721 12.3449C46.8417 12.5789 47.0104 12.7587 47.2271 12.8843C47.4439 13.0074 47.6975 13.069 47.9882 13.069C48.1827 13.069 48.3588 13.0419 48.5165 12.9877C48.6741 12.9311 48.8108 12.8486 48.9265 12.7402C49.0423 12.6318 49.1297 12.4976 49.1888 12.3375L50.4375 12.4779C50.3587 12.8079 50.2085 13.0961 49.9868 13.3424C49.7676 13.5862 49.4869 13.7759 49.1445 13.9113C48.8022 14.0443 48.4106 14.1108 47.9697 14.1108Z" fill="#02B15A"/>
<rect width="69" height="20" rx="8.66947" fill="#02B15A" fill-opacity="0.15"/>
</svg>
