<svg width="38" height="38" viewBox="0 0 38 38" fill="none" xmlns="http://www.w3.org/2000/svg">
<path fill-rule="evenodd" clip-rule="evenodd" d="M38 19C38 29.4934 29.4934 38 19 38C8.5066 38 0 29.4934 0 19C0 8.5066 8.5066 0 19 0C29.4934 0 38 8.5066 38 19Z" fill="#E84142"/>
<path fill-rule="evenodd" clip-rule="evenodd" d="M13.616 26.5606H9.92862C9.15382 26.5606 8.77105 26.5606 8.53765 26.4113C8.28563 26.2479 8.13157 25.9772 8.1129 25.6785C8.09892 25.4031 8.29027 25.067 8.67303 24.3949L17.7776 8.34682C18.165 7.66534 18.361 7.32464 18.6084 7.1986C18.8745 7.06328 19.1919 7.06328 19.4579 7.1986C19.7053 7.32464 19.9014 7.66534 20.2888 8.34682L22.1604 11.6141L22.17 11.6308C22.5884 12.3619 22.8006 12.7326 22.8933 13.1217C22.9959 13.5465 22.9959 13.9945 22.8933 14.4193C22.7999 14.8114 22.5898 15.1848 22.1651 15.927L17.3827 24.3809L17.3703 24.4026C16.9491 25.1396 16.7357 25.5132 16.4398 25.7952C16.1178 26.1032 15.7304 26.3272 15.3056 26.4533C14.9182 26.5606 14.4842 26.5606 13.616 26.5606Z" fill="white"/>
<path fill-rule="evenodd" clip-rule="evenodd" d="M22.9278 26.561H28.2115C28.991 26.561 29.383 26.561 29.6164 26.407C29.8684 26.2436 30.0271 25.9682 30.0412 25.6695C30.0547 25.4032 29.8674 25.0801 29.5005 24.4471C29.488 24.4255 29.4753 24.4036 29.4623 24.3813L26.8159 19.8538L26.7857 19.8028C26.4138 19.1739 26.226 18.8563 25.985 18.7336C25.719 18.5982 25.4063 18.5982 25.1402 18.7336C24.8975 18.8595 24.7014 19.191 24.314 19.8584L21.6769 24.3859L21.6678 24.4015C21.2818 25.0679 21.0888 25.4009 21.1028 25.6742C21.1214 25.9729 21.2754 26.2483 21.5275 26.4117C21.7562 26.561 22.1483 26.561 22.9278 26.561Z" fill="white"/>
</svg>
