<svg width="38" height="38" viewBox="0 0 38 38" fill="none" xmlns="http://www.w3.org/2000/svg">
<g clip-path="url(#clip0_95_8453)">
<path fill-rule="evenodd" clip-rule="evenodd" d="M18.9258 0C22.6836 0 26.3571 1.11433 29.4816 3.20208C32.6061 5.28982 35.0414 8.25722 36.4795 11.729C37.9176 15.2008 38.2938 19.0211 37.5607 22.7067C36.8276 26.3924 35.018 29.7778 32.3608 32.435C29.7036 35.0922 26.3181 36.9018 22.6325 37.6349C18.9469 38.368 15.1266 37.9918 11.6548 36.5537C8.183 35.1156 5.21561 32.6804 3.12786 29.5558C1.04011 26.4313 -0.0742187 22.7578 -0.0742188 19C-0.0742188 13.9609 1.92756 9.12816 5.49075 5.56497C9.05394 2.00178 13.8867 0 18.9258 0V0Z" fill="white"/>
<path fill-rule="evenodd" clip-rule="evenodd" d="M18.9258 4.07983L23.9245 11.5486L28.9233 19.019L18.9258 24.0557L8.92834 19L13.9271 11.5296L18.9258 4.07983ZM18.9258 26.068L9.4828 21.0296L18.9258 33.9202L28.3688 21.0296L18.9258 26.068Z" fill="#343434"/>
<path fill-rule="evenodd" clip-rule="evenodd" d="M18.9258 4.07983L23.9245 11.5296L28.9232 19L18.9258 15.2259V4.07983Z" fill="#343434"/>
<path fill-rule="evenodd" clip-rule="evenodd" d="M18.9258 26.068L28.3878 21.0295L18.9258 33.9392V26.068Z" fill="#313131"/>
<path fill-rule="evenodd" clip-rule="evenodd" d="M18.9258 15.2259L28.9232 19L18.9258 24.0367V15.2259Z" fill="#151515"/>
<path fill-rule="evenodd" clip-rule="evenodd" d="M18.9258 4.07983L13.9271 11.5296L8.92834 19L18.9258 15.2259V4.07983Z" fill="#8C8C8C"/>
<path fill-rule="evenodd" clip-rule="evenodd" d="M18.9258 26.068L9.48279 21.0295L18.9258 33.9392V26.068Z" fill="#8A8A8A"/>
<path fill-rule="evenodd" clip-rule="evenodd" d="M18.9258 15.2259L8.92834 19L18.9258 24.0367V15.2259Z" fill="#353535"/>
</g>
<defs>
<clipPath id="clip0_95_8453">
<rect width="38" height="38" rx="19" fill="white"/>
</clipPath>
</defs>
</svg>
