<svg width="38" height="38" viewBox="0 0 38 38" fill="none" xmlns="http://www.w3.org/2000/svg">
<circle cx="19" cy="19" r="19" fill="#8247E5"/>
<path d="M25.2889 14.9349C24.8332 14.6698 24.2408 14.6698 23.7395 14.9349L20.1849 16.9675L17.7696 18.2931L14.215 20.3256C13.7593 20.5907 13.1668 20.5907 12.6655 20.3256L9.84006 18.7349C9.38435 18.4698 9.06536 17.9838 9.06536 17.4535V14.3163C9.06536 13.7861 9.33878 13.3001 9.84006 13.0349L12.62 11.4884C13.0757 11.2233 13.6681 11.2233 14.1694 11.4884L16.9493 13.0349C17.405 13.3001 17.724 13.7861 17.724 14.3163V16.3489L20.1393 14.9791V12.9465C20.1393 12.4163 19.8659 11.9303 19.3646 11.6652L14.215 8.74888C13.7593 8.48377 13.1668 8.48377 12.6655 8.74888L7.42476 11.6652C6.92345 11.9303 6.65002 12.4163 6.65002 12.9465V18.8233C6.65002 19.3535 6.92345 19.8396 7.42476 20.1047L12.6655 23.021C13.1213 23.2861 13.7137 23.2861 14.215 23.021L17.7696 21.0326L20.1849 19.6628L23.7395 17.6745C24.1952 17.4094 24.7877 17.4094 25.2889 17.6745L28.0688 19.221C28.5246 19.4861 28.8436 19.9721 28.8436 20.5024V23.6396C28.8436 24.1698 28.5701 24.6559 28.0688 24.921L25.2889 26.5117C24.8332 26.7768 24.2408 26.7768 23.7395 26.5117L20.9596 24.9652C20.5039 24.7001 20.1849 24.214 20.1849 23.6838V21.6512L17.7696 23.021V25.0535C17.7696 25.5838 18.043 26.0698 18.5443 26.3349L23.7851 29.2512C24.2408 29.5163 24.8332 29.5163 25.3345 29.2512L30.5753 26.3349C31.031 26.0698 31.35 25.5838 31.35 25.0535V19.1768C31.35 18.6465 31.0766 18.1605 30.5753 17.8954L25.2889 14.9349Z" fill="white"/>
</svg>
