<svg width="95" height="20" viewBox="0 0 95 20" fill="none" xmlns="http://www.w3.org/2000/svg">
<rect width="95" height="20" rx="8.66947" fill="#8C89B4" fill-opacity="0.15"/>
<path d="M19.5361 5.43392L21.5052 11.3893H21.5828L23.5482 5.43392H25.0555L22.3882 13H20.6961L18.0325 5.43392H19.5361ZM25.9929 13V7.32544H27.3303V13H25.9929ZM26.6653 6.52006C26.4535 6.52006 26.2712 6.44987 26.1185 6.30949C25.9658 6.16664 25.8895 5.99546 25.8895 5.79597C25.8895 5.59401 25.9658 5.42283 26.1185 5.28245C26.2712 5.1396 26.4535 5.06817 26.6653 5.06817C26.8796 5.06817 27.0618 5.1396 27.2121 5.28245C27.3648 5.42283 27.4411 5.59401 27.4411 5.79597C27.4411 5.99546 27.3648 6.16664 27.2121 6.30949C27.0618 6.44987 26.8796 6.52006 26.6653 6.52006ZM31.2177 13.1108C30.6488 13.1108 30.1574 12.9926 29.7437 12.7562C29.3323 12.5173 29.0159 12.1798 28.7942 11.7439C28.5725 11.3055 28.4617 10.7895 28.4617 10.196C28.4617 9.61226 28.5725 9.09997 28.7942 8.65911C29.0183 8.21578 29.3311 7.87097 29.7326 7.62468C30.134 7.37593 30.6057 7.25155 31.1475 7.25155C31.4973 7.25155 31.8273 7.3082 32.1376 7.42149C32.4504 7.53232 32.7262 7.70473 32.9652 7.93871C33.2065 8.17268 33.3962 8.4707 33.5341 8.83274C33.672 9.19233 33.741 9.62088 33.741 10.1184V10.5285H29.0898V9.62703H32.459C32.4566 9.37089 32.4011 9.14307 32.2928 8.94358C32.1844 8.74162 32.0329 8.58276 31.8384 8.467C31.6463 8.35124 31.4221 8.29337 31.166 8.29337C30.8926 8.29337 30.6525 8.35986 30.4456 8.49286C30.2387 8.6234 30.0774 8.7958 29.9616 9.01007C29.8483 9.22188 29.7905 9.45463 29.788 9.70831V10.4952C29.788 10.8252 29.8483 11.1085 29.969 11.3449C30.0897 11.5789 30.2584 11.7587 30.4751 11.8843C30.6919 12.0074 30.9456 12.069 31.2362 12.069C31.4308 12.069 31.6069 12.0419 31.7645 11.9877C31.9221 11.9311 32.0588 11.8486 32.1746 11.7402C32.2903 11.6318 32.3777 11.4976 32.4369 11.3375L33.6856 11.4779C33.6067 11.8079 33.4565 12.0961 33.2348 12.3424C33.0156 12.5862 32.7349 12.7759 32.3925 12.9113C32.0502 13.0443 31.6586 13.1108 31.2177 13.1108ZM36.013 13L34.4097 7.32544H35.7729L36.7704 11.3154H36.8221L37.8417 7.32544H39.1902L40.2098 11.2932H40.2652L41.2479 7.32544H42.6149L41.0078 13H39.615L38.551 9.16524H38.4735L37.4095 13H36.013ZM48.2349 13.0997C47.7891 13.0997 47.3901 12.9852 47.038 12.7562C46.6858 12.5271 46.4074 12.1946 46.203 11.7587C45.9986 11.3228 45.8964 10.7932 45.8964 10.1701C45.8964 9.5396 45.9998 9.00761 46.2067 8.57414C46.4161 8.1382 46.6981 7.8094 47.0527 7.58774C47.4074 7.36361 47.8027 7.25155 48.2386 7.25155C48.5711 7.25155 48.8445 7.3082 49.0588 7.42149C49.273 7.53232 49.443 7.66655 49.5686 7.82418C49.6942 7.97934 49.7915 8.12589 49.8605 8.26381H49.9159V5.43392H51.2569V13H49.9417V12.106H49.8605C49.7915 12.2439 49.6917 12.3904 49.5612 12.5456C49.4307 12.6983 49.2583 12.8288 49.044 12.9372C48.8297 13.0456 48.56 13.0997 48.2349 13.0997ZM48.6081 12.0025C48.8913 12.0025 49.1327 11.9262 49.3322 11.7735C49.5317 11.6183 49.6831 11.4028 49.7866 11.127C49.89 10.8511 49.9417 10.5297 49.9417 10.1627C49.9417 9.79574 49.89 9.4768 49.7866 9.20588C49.6856 8.93496 49.5353 8.72438 49.3359 8.57414C49.1388 8.4239 48.8962 8.34878 48.6081 8.34878C48.31 8.34878 48.0613 8.42636 47.8618 8.58153C47.6623 8.73669 47.5121 8.95096 47.4111 9.22435C47.3101 9.49773 47.2596 9.81052 47.2596 10.1627C47.2596 10.5174 47.3101 10.8339 47.4111 11.1122C47.5145 11.388 47.666 11.606 47.8655 11.7661C48.0675 11.9237 48.315 12.0025 48.6081 12.0025ZM55.1942 13.1108C54.6253 13.1108 54.1339 12.9926 53.7202 12.7562C53.3088 12.5173 52.9924 12.1798 52.7707 11.7439C52.549 11.3055 52.4382 10.7895 52.4382 10.196C52.4382 9.61226 52.549 9.09997 52.7707 8.65911C52.9948 8.21578 53.3076 7.87097 53.7091 7.62468C54.1105 7.37593 54.5822 7.25155 55.124 7.25155C55.4738 7.25155 55.8038 7.3082 56.1141 7.42149C56.4269 7.53232 56.7027 7.70473 56.9417 7.93871C57.183 8.17268 57.3727 8.4707 57.5106 8.83274C57.6485 9.19233 57.7175 9.62088 57.7175 10.1184V10.5285H53.0662V9.62703H56.4355C56.4331 9.37089 56.3776 9.14307 56.2693 8.94358C56.1609 8.74162 56.0094 8.58276 55.8149 8.467C55.6228 8.35124 55.3986 8.29337 55.1425 8.29337C54.8691 8.29337 54.629 8.35986 54.4221 8.49286C54.2152 8.6234 54.0539 8.7958 53.9381 9.01007C53.8248 9.22188 53.7669 9.45463 53.7645 9.70831V10.4952C53.7645 10.8252 53.8248 11.1085 53.9455 11.3449C54.0662 11.5789 54.2349 11.7587 54.4516 11.8843C54.6684 12.0074 54.9221 12.069 55.2127 12.069C55.4073 12.069 55.5834 12.0419 55.741 11.9877C55.8986 11.9311 56.0353 11.8486 56.1511 11.7402C56.2668 11.6318 56.3542 11.4976 56.4134 11.3375L57.6621 11.4779C57.5832 11.8079 57.433 12.0961 57.2113 12.3424C56.9921 12.5862 56.7114 12.7759 56.369 12.9113C56.0267 13.0443 55.6351 13.1108 55.1942 13.1108ZM61.6825 7.32544V8.35986H58.4203V7.32544H61.6825ZM59.2257 5.96591H60.5631V11.2932C60.5631 11.473 60.5902 11.6109 60.6443 11.707C60.701 11.8006 60.7749 11.8646 60.866 11.8991C60.9571 11.9336 61.0581 11.9508 61.1689 11.9508C61.2527 11.9508 61.329 11.9446 61.398 11.9323C61.4694 11.92 61.5236 11.9089 61.5605 11.8991L61.7859 12.9446C61.7145 12.9692 61.6123 12.9963 61.4793 13.0259C61.3487 13.0554 61.1886 13.0727 60.999 13.0776C60.664 13.0874 60.3623 13.0369 60.0939 12.9261C59.8254 12.8128 59.6124 12.638 59.4548 12.4015C59.2996 12.1651 59.2232 11.8695 59.2257 11.5149V5.96591ZM64.4338 13.1145C64.0743 13.1145 63.7504 13.0505 63.4622 12.9224C63.1765 12.7919 62.9499 12.5998 62.7825 12.3461C62.6174 12.0924 62.5349 11.7796 62.5349 11.4077C62.5349 11.0875 62.594 10.8228 62.7123 10.6134C62.8305 10.4041 62.9918 10.2366 63.1962 10.111C63.4007 9.98539 63.6309 9.89057 63.8871 9.82653C64.1457 9.76003 64.4129 9.71201 64.6888 9.68245C65.0213 9.64797 65.2909 9.61718 65.4978 9.59009C65.7047 9.56054 65.8549 9.5162 65.9485 9.45709C66.0446 9.39552 66.0926 9.3007 66.0926 9.17263V9.15046C66.0926 8.87215 66.0101 8.65665 65.8451 8.50394C65.6801 8.35124 65.4424 8.27489 65.1321 8.27489C64.8045 8.27489 64.5447 8.34632 64.3526 8.48917C64.1629 8.63202 64.0349 8.80073 63.9684 8.9953L62.7197 8.81797C62.8182 8.47316 62.9807 8.185 63.2073 7.95348C63.4339 7.71951 63.711 7.54464 64.0385 7.42888C64.3661 7.31066 64.7282 7.25155 65.1247 7.25155C65.3981 7.25155 65.6702 7.28357 65.9412 7.3476C66.2121 7.41164 66.4596 7.51755 66.6837 7.66532C66.9078 7.81063 67.0876 8.0089 67.2231 8.26012C67.361 8.51133 67.43 8.82536 67.43 9.20218V13H66.1443V12.2205H66.1C66.0187 12.3781 65.9042 12.5259 65.7564 12.6638C65.6111 12.7993 65.4276 12.9089 65.206 12.9926C64.9868 13.0739 64.7294 13.1145 64.4338 13.1145ZM64.7811 12.1318C65.0496 12.1318 65.2823 12.0789 65.4794 11.973C65.6764 11.8646 65.8279 11.7217 65.9338 11.5444C66.0421 11.3671 66.0963 11.1737 66.0963 10.9644V10.2957C66.0544 10.3302 65.983 10.3622 65.882 10.3918C65.7835 10.4213 65.6727 10.4472 65.5495 10.4694C65.4264 10.4915 65.3045 10.5112 65.1838 10.5285C65.0631 10.5457 64.9584 10.5605 64.8698 10.5728C64.6703 10.5999 64.4917 10.6442 64.3341 10.7058C64.1765 10.7674 64.0521 10.8536 63.961 10.9644C63.8698 11.0728 63.8243 11.2132 63.8243 11.3856C63.8243 11.6318 63.9142 11.8178 64.094 11.9434C64.2738 12.069 64.5028 12.1318 64.7811 12.1318ZM68.7747 13V7.32544H70.1121V13H68.7747ZM69.4471 6.52006C69.2353 6.52006 69.053 6.44987 68.9003 6.30949C68.7476 6.16664 68.6713 5.99546 68.6713 5.79597C68.6713 5.59401 68.7476 5.42283 68.9003 5.28245C69.053 5.1396 69.2353 5.06817 69.4471 5.06817C69.6614 5.06817 69.8436 5.1396 69.9939 5.28245C70.1466 5.42283 70.2229 5.59401 70.2229 5.79597C70.2229 5.99546 70.1466 6.16664 69.9939 6.30949C69.8436 6.44987 69.6614 6.52006 69.4471 6.52006ZM72.8247 5.43392V13H71.4873V5.43392H72.8247ZM78.6849 8.82536L77.4658 8.95835C77.4313 8.83521 77.3709 8.71945 77.2847 8.61108C77.201 8.50271 77.0877 8.41528 76.9448 8.34878C76.802 8.28228 76.6271 8.24903 76.4202 8.24903C76.1419 8.24903 75.908 8.30937 75.7183 8.43006C75.5311 8.55074 75.4388 8.70714 75.4412 8.89924C75.4388 9.06426 75.4991 9.19849 75.6223 9.30193C75.7479 9.40537 75.9548 9.49034 76.2429 9.55684L77.2108 9.76373C77.7478 9.87948 78.1468 10.063 78.4078 10.3142C78.6714 10.5654 78.8043 10.8942 78.8068 11.3006C78.8043 11.6577 78.6997 11.973 78.4928 12.2463C78.2884 12.5173 78.0039 12.7291 77.6394 12.8818C77.2749 13.0345 76.8562 13.1108 76.3833 13.1108C75.6888 13.1108 75.1297 12.9655 74.7061 12.6749C74.2824 12.3818 74.03 11.9742 73.9487 11.4521L75.2528 11.3264C75.3119 11.5826 75.4375 11.7759 75.6296 11.9065C75.8218 12.037 76.0717 12.1023 76.3796 12.1023C76.6973 12.1023 76.9522 12.037 77.1443 11.9065C77.3389 11.7759 77.4362 11.6146 77.4362 11.4225C77.4362 11.2599 77.3734 11.1257 77.2478 11.0198C77.1246 10.9139 76.9325 10.8326 76.6715 10.776L75.7035 10.5728C75.1592 10.4595 74.7565 10.2686 74.4955 10.0002C74.2344 9.72925 74.1051 9.3869 74.1076 8.97313C74.1051 8.6234 74.1999 8.32046 74.392 8.06431C74.5866 7.80571 74.8563 7.60621 75.2011 7.46582C75.5484 7.32298 75.9486 7.25155 76.4018 7.25155C77.0668 7.25155 77.5901 7.39317 77.9719 7.6764C78.3561 7.95964 78.5938 8.34262 78.6849 8.82536Z" fill="#8C89B4"/>
</svg>
