<svg width="267" height="78" viewBox="0 0 267 78" fill="none" xmlns="http://www.w3.org/2000/svg">
<path d="M35.008 4.98837C36.2654 4.98837 37.5006 5.3171 38.5889 5.94584L61.4403 19.1397C62.5296 19.7689 63.434 20.6739 64.0626 21.7636C64.6912 22.8532 65.0218 24.0892 65.0212 25.3472V52.2646C65.0212 54.8242 63.6584 57.1892 61.4403 58.469L38.5857 71.666C37.4965 72.2948 36.2609 72.6259 35.0032 72.6259C33.7455 72.6259 32.5099 72.2948 31.4207 71.666L8.5629 58.469C7.4737 57.8401 6.56914 56.9358 5.94003 55.8467C5.31092 54.7577 4.97941 53.5223 4.9788 52.2646V25.3472C4.9788 22.7876 6.34478 20.4227 8.5629 19.1397L31.4143 5.94584C32.5058 5.3171 33.7441 4.98518 34.9984 4.98518H35.0048L35.008 4.98837ZM35.0016 0.00638261C32.8705 0.00763178 30.7771 0.568941 28.9313 1.63407L6.0735 14.8247C4.22913 15.8933 2.69752 17.4272 1.63172 19.2731C0.565927 21.1191 0.00327539 23.2125 0 25.344V52.2614C0.00327539 54.393 0.565927 56.4863 1.63172 58.3323C2.69752 60.1783 4.22913 61.7122 6.0735 62.7807L28.9249 75.9746C32.6845 78.1448 37.3155 78.1448 41.0719 75.9746L63.9265 62.7807C65.7709 61.7122 67.3025 60.1783 68.3683 58.3323C69.4341 56.4863 69.9967 54.393 70 52.2614V25.344C69.9967 23.2125 69.4341 21.1191 68.3683 19.2731C67.3025 17.4272 65.7709 15.8933 63.9265 14.8247L41.0751 1.62768C39.2274 0.561477 37.1317 0.000129979 34.9984 0L35.0016 0.00638261Z" fill="white"/>
<path d="M32.2026 43.0315C31.94 43.0319 31.682 42.963 31.4545 42.8319C31.227 42.7008 31.0381 42.512 30.9068 42.2846L28.1589 37.5197C28.0278 37.2926 27.9588 37.0351 27.9588 36.7729C27.9588 36.5107 28.0278 36.2531 28.1589 36.026L30.9068 31.2611C31.0381 31.0337 31.227 30.8449 31.4545 30.7138C31.682 30.5827 31.94 30.5139 32.2026 30.5143H37.8133C38.0752 30.5151 38.3323 30.5844 38.5591 30.7155C38.7858 30.8465 38.9744 31.0346 39.1059 31.2611L41.857 36.026C41.9881 36.2531 42.0571 36.5107 42.0571 36.7729C42.0571 37.0351 41.9881 37.2926 41.857 37.5197L39.1059 42.2846C38.9749 42.5116 38.7864 42.7 38.5596 42.8311C38.3327 42.9622 38.0753 43.0313 37.8133 43.0315H32.2026ZM24.7056 35.5282C24.9681 35.5279 25.2259 35.4588 25.4532 35.3278C25.6806 35.1967 25.8696 35.0083 26.0014 34.7813L28.7493 30.0164C28.8804 29.7893 28.9494 29.5317 28.9494 29.2696C28.9494 29.0074 28.8804 28.7498 28.7493 28.5227L25.3216 22.5833L18.629 26.2344C18.389 26.3659 18.1898 26.5607 18.0531 26.7976C17.9163 27.0346 17.8472 27.3045 17.8534 27.578C17.9077 30.2526 18.2204 32.9143 18.7821 35.5282H24.7056ZM45.307 35.5282C45.045 35.528 44.7876 35.4589 44.5607 35.3278C44.3339 35.1967 44.1455 35.0083 44.0144 34.7813L41.2633 30.0164C41.1322 29.7893 41.0632 29.5317 41.0632 29.2696C41.0632 29.0074 41.1322 28.7498 41.2633 28.5227L44.6911 22.5833L51.3805 26.2344C51.6205 26.3652 51.8201 26.5593 51.9574 26.7957C52.0947 27.032 52.1645 27.3016 52.1592 27.5749C52.1048 30.2494 51.7949 32.9126 51.2337 35.5282H45.307ZM35.7228 17.6843C35.5035 17.5647 35.2577 17.5021 35.0079 17.5021C34.7581 17.5021 34.5123 17.5647 34.293 17.6843L27.5078 21.3865L30.91 27.278C31.041 27.505 31.2294 27.6934 31.4563 27.8245C31.6832 27.9556 31.9405 28.0247 32.2026 28.0249H37.8133C38.0754 28.025 38.3329 27.9561 38.5598 27.8249C38.7868 27.6938 38.9751 27.5052 39.1059 27.278L42.508 21.3897L35.7228 17.6875V17.6843ZM19.4013 38.0176C20.6813 42.5713 22.7265 46.8742 25.4493 50.7422L28.7525 45.023C28.8836 44.7959 28.9526 44.5384 28.9526 44.2762C28.9526 44.014 28.8836 43.7564 28.7525 43.5294L26.0014 38.7644C25.8704 38.5375 25.682 38.349 25.4551 38.2179C25.2282 38.0868 24.9709 38.0177 24.7088 38.0176H19.4013ZM50.6082 38.0176C49.3291 42.5711 47.285 46.874 44.5634 50.7422L41.2601 45.023C41.1291 44.7959 41.06 44.5384 41.06 44.2762C41.06 44.014 41.1291 43.7564 41.2601 43.5294L44.0144 38.7644C44.1455 38.5375 44.3339 38.349 44.5607 38.2179C44.7876 38.0868 45.045 38.0177 45.307 38.0176H50.6114H50.6082ZM32.2026 45.5209C31.94 45.5205 31.682 45.5893 31.4545 45.7204C31.227 45.8515 31.0381 46.0403 30.9068 46.2677L27.077 52.9061C29.1395 55.4689 31.4949 57.7815 34.0951 59.7966C34.3573 59.9982 34.6788 60.1075 35.0095 60.1075C35.3403 60.1075 35.6617 59.9982 35.9239 59.7966C38.5232 57.7803 40.8775 55.4666 42.9389 52.9029L39.1091 46.2677C38.978 46.0408 38.7896 45.8523 38.5628 45.7212C38.3359 45.5901 38.0785 45.521 37.8165 45.5209H32.1994H32.2026Z" fill="white"/>
<path d="M87.1207 29.7841V25.7273H106.234V29.7841H99.1094V49H94.2457V29.7841H87.1207ZM118.109 41.5682V31.5455H122.95V49H118.303V45.8295H118.121C117.727 46.8523 117.071 47.6742 116.155 48.2955C115.246 48.9167 114.136 49.2273 112.825 49.2273C111.659 49.2273 110.632 48.9621 109.746 48.4318C108.859 47.9015 108.166 47.1477 107.666 46.1705C107.174 45.1932 106.924 44.0227 106.916 42.6591V31.5455H111.757V41.7955C111.765 42.8258 112.041 43.6402 112.587 44.2386C113.132 44.8371 113.863 45.1364 114.78 45.1364C115.363 45.1364 115.909 45.0038 116.416 44.7386C116.924 44.4659 117.333 44.0644 117.643 43.5341C117.962 43.0038 118.117 42.3485 118.109 41.5682ZM126.822 49V31.5455H131.516V34.5909H131.697C132.016 33.5076 132.55 32.6894 133.3 32.1364C134.05 31.5758 134.913 31.2955 135.891 31.2955C136.133 31.2955 136.394 31.3106 136.675 31.3409C136.955 31.3712 137.201 31.4129 137.413 31.4659V35.7614C137.186 35.6932 136.872 35.6326 136.47 35.5795C136.069 35.5265 135.701 35.5 135.368 35.5C134.656 35.5 134.019 35.6553 133.459 35.9659C132.906 36.2689 132.466 36.6932 132.141 37.2386C131.822 37.7841 131.663 38.4129 131.663 39.125V49H126.822ZM150.075 31.5455V35.1818H139.564V31.5455H150.075ZM141.95 27.3636H146.791V43.6364C146.791 44.0833 146.859 44.4318 146.996 44.6818C147.132 44.9242 147.321 45.0947 147.564 45.1932C147.814 45.2917 148.102 45.3409 148.428 45.3409C148.655 45.3409 148.882 45.322 149.109 45.2841C149.337 45.2386 149.511 45.2045 149.632 45.1818L150.393 48.7841C150.151 48.8598 149.81 48.947 149.371 49.0455C148.931 49.1515 148.397 49.2159 147.768 49.2386C146.602 49.2841 145.579 49.1288 144.7 48.7727C143.829 48.4167 143.151 47.8636 142.666 47.1136C142.181 46.3636 141.943 45.4167 141.95 44.2727V27.3636ZM158.445 25.7273V49H153.604V25.7273H158.445ZM170.277 49.3409C168.482 49.3409 166.936 48.9773 165.641 48.25C164.353 47.5152 163.36 46.4773 162.663 45.1364C161.966 43.7879 161.618 42.1932 161.618 40.3523C161.618 38.5568 161.966 36.9811 162.663 35.625C163.36 34.2689 164.341 33.2121 165.607 32.4545C166.879 31.697 168.372 31.3182 170.084 31.3182C171.235 31.3182 172.307 31.5038 173.3 31.875C174.3 32.2386 175.171 32.7879 175.913 33.5227C176.663 34.2576 177.247 35.1818 177.663 36.2955C178.08 37.4015 178.288 38.697 178.288 40.1818V41.5114H163.55V38.5114H173.732C173.732 37.8144 173.58 37.197 173.277 36.6591C172.974 36.1212 172.554 35.7008 172.016 35.3977C171.485 35.0871 170.868 34.9318 170.163 34.9318C169.429 34.9318 168.777 35.1023 168.209 35.4432C167.648 35.7765 167.209 36.2273 166.891 36.7955C166.572 37.3561 166.41 37.9811 166.402 38.6705V41.5227C166.402 42.3864 166.561 43.1326 166.879 43.7614C167.205 44.3902 167.663 44.875 168.254 45.2159C168.845 45.5568 169.546 45.7273 170.357 45.7273C170.894 45.7273 171.387 45.6515 171.834 45.5C172.281 45.3485 172.663 45.1212 172.982 44.8182C173.3 44.5152 173.542 44.1439 173.709 43.7045L178.186 44C177.959 45.0758 177.493 46.0152 176.788 46.8182C176.091 47.6136 175.19 48.2348 174.084 48.6818C172.985 49.1212 171.716 49.3409 170.277 49.3409ZM194.163 32.4205C194.072 31.5038 193.682 30.7917 192.993 30.2841C192.304 29.7765 191.368 29.5227 190.186 29.5227C189.383 29.5227 188.705 29.6364 188.152 29.8636C187.599 30.0833 187.175 30.3902 186.879 30.7841C186.591 31.178 186.447 31.625 186.447 32.125C186.432 32.5417 186.519 32.9053 186.709 33.2159C186.906 33.5265 187.175 33.7955 187.516 34.0227C187.857 34.2424 188.25 34.4356 188.697 34.6023C189.144 34.7614 189.622 34.8977 190.129 35.0114L192.22 35.5114C193.235 35.7386 194.167 36.0417 195.016 36.4205C195.864 36.7992 196.599 37.2652 197.22 37.8182C197.841 38.3712 198.322 39.0227 198.663 39.7727C199.012 40.5227 199.19 41.3826 199.197 42.3523C199.19 43.7765 198.826 45.0114 198.107 46.0568C197.394 47.0947 196.364 47.9015 195.016 48.4773C193.675 49.0455 192.057 49.3295 190.163 49.3295C188.285 49.3295 186.648 49.0417 185.254 48.4659C183.868 47.8902 182.785 47.0379 182.004 45.9091C181.232 44.7727 180.826 43.3674 180.788 41.6932H185.55C185.603 42.4735 185.826 43.125 186.22 43.6477C186.622 44.1629 187.156 44.553 187.822 44.8182C188.497 45.0758 189.258 45.2045 190.107 45.2045C190.94 45.2045 191.663 45.0833 192.277 44.8409C192.898 44.5985 193.379 44.2614 193.72 43.8295C194.061 43.3977 194.232 42.9015 194.232 42.3409C194.232 41.8182 194.076 41.3788 193.766 41.0227C193.463 40.6667 193.016 40.3636 192.425 40.1136C191.841 39.8636 191.125 39.6364 190.277 39.4318L187.743 38.7955C185.781 38.3182 184.232 37.572 183.095 36.5568C181.959 35.5417 181.394 34.1742 181.402 32.4545C181.394 31.0455 181.769 29.8144 182.527 28.7614C183.292 27.7083 184.341 26.8864 185.675 26.2955C187.008 25.7045 188.523 25.4091 190.22 25.4091C191.947 25.4091 193.455 25.7045 194.743 26.2955C196.038 26.8864 197.046 27.7083 197.766 28.7614C198.485 29.8144 198.857 31.0341 198.879 32.4205H194.163ZM207.257 38.9091V49H202.416V25.7273H207.121V34.625H207.325C207.719 33.5947 208.356 32.7879 209.234 32.2045C210.113 31.6136 211.215 31.3182 212.541 31.3182C213.753 31.3182 214.81 31.5833 215.712 32.1136C216.621 32.6364 217.325 33.3902 217.825 34.375C218.333 35.3523 218.583 36.5227 218.575 37.8864V49H213.734V38.75C213.742 37.6742 213.469 36.8371 212.916 36.2386C212.371 35.6402 211.606 35.3409 210.621 35.3409C209.962 35.3409 209.378 35.4811 208.871 35.7614C208.371 36.0417 207.977 36.4508 207.689 36.9886C207.409 37.5189 207.265 38.1591 207.257 38.9091ZM230.339 49.3409C228.544 49.3409 226.999 48.9773 225.703 48.25C224.415 47.5152 223.423 46.4773 222.726 45.1364C222.029 43.7879 221.68 42.1932 221.68 40.3523C221.68 38.5568 222.029 36.9811 222.726 35.625C223.423 34.2689 224.404 33.2121 225.669 32.4545C226.942 31.697 228.434 31.3182 230.146 31.3182C231.298 31.3182 232.37 31.5038 233.362 31.875C234.362 32.2386 235.233 32.7879 235.976 33.5227C236.726 34.2576 237.309 35.1818 237.726 36.2955C238.143 37.4015 238.351 38.697 238.351 40.1818V41.5114H223.612V38.5114H233.794C233.794 37.8144 233.643 37.197 233.339 36.6591C233.036 36.1212 232.616 35.7008 232.078 35.3977C231.548 35.0871 230.93 34.9318 230.226 34.9318C229.491 34.9318 228.839 35.1023 228.271 35.4432C227.711 35.7765 227.271 36.2273 226.953 36.7955C226.635 37.3561 226.472 37.9811 226.464 38.6705V41.5227C226.464 42.3864 226.624 43.1326 226.942 43.7614C227.268 44.3902 227.726 44.875 228.317 45.2159C228.908 45.5568 229.608 45.7273 230.419 45.7273C230.957 45.7273 231.449 45.6515 231.896 45.5C232.343 45.3485 232.726 45.1212 233.044 44.8182C233.362 44.5152 233.605 44.1439 233.771 43.7045L238.249 44C238.021 45.0758 237.555 46.0152 236.851 46.8182C236.154 47.6136 235.252 48.2348 234.146 48.6818C233.048 49.1212 231.779 49.3409 230.339 49.3409ZM246.351 25.7273V49H241.51V25.7273H246.351ZM255.07 25.7273V49H250.229V25.7273H255.07Z" fill="white"/>
</svg>
