<svg width="146" height="31" viewBox="0 0 146 31" fill="none" xmlns="http://www.w3.org/2000/svg">
<rect width="146" height="31" rx="8.66947" fill="#8C89B4" fill-opacity="0.15"/>
<path d="M33.4299 12.3643V10.8182H41.5534V12.3643H38.4064V21H36.5769V12.3643H33.4299ZM42.247 21V13.3636H43.992V14.6364H44.0716C44.2108 14.1955 44.4494 13.8558 44.7875 13.6172C45.1288 13.3752 45.5183 13.2543 45.9558 13.2543C46.0552 13.2543 46.1663 13.2592 46.2889 13.2692C46.4148 13.2758 46.5192 13.2874 46.6021 13.304V14.9595C46.5259 14.933 46.4049 14.9098 46.2392 14.8899C46.0768 14.8667 45.9193 14.8551 45.7669 14.8551C45.4387 14.8551 45.1438 14.9264 44.8819 15.0689C44.6234 15.2081 44.4196 15.402 44.2704 15.6506C44.1213 15.8991 44.0467 16.1858 44.0467 16.5107V21H42.247ZM49.8585 21.1541C49.3746 21.1541 48.9387 21.0679 48.551 20.8956C48.1665 20.7199 47.8616 20.4614 47.6362 20.12C47.4141 19.7786 47.3031 19.3577 47.3031 18.8572C47.3031 18.4264 47.3826 18.0701 47.5417 17.7884C47.7008 17.5066 47.9179 17.2812 48.193 17.1122C48.4681 16.9432 48.778 16.8156 49.1227 16.7294C49.4707 16.6399 49.8303 16.5753 50.2015 16.5355C50.649 16.4891 51.0119 16.4477 51.2903 16.4112C51.5687 16.3714 51.7709 16.3118 51.8968 16.2322C52.0261 16.1494 52.0907 16.0218 52.0907 15.8494V15.8196C52.0907 15.4451 51.9797 15.1551 51.7576 14.9496C51.5356 14.7441 51.2157 14.6413 50.7981 14.6413C50.3573 14.6413 50.0076 14.7375 49.7491 14.9297C49.4939 15.1219 49.3216 15.349 49.2321 15.6108L47.5517 15.3722C47.6842 14.9081 47.903 14.5204 48.2079 14.2088C48.5128 13.8939 48.8857 13.6586 49.3265 13.5028C49.7673 13.3438 50.2546 13.2642 50.7882 13.2642C51.1561 13.2642 51.5223 13.3073 51.8869 13.3935C52.2515 13.4796 52.5846 13.6222 52.8862 13.821C53.1878 14.0166 53.4297 14.2834 53.612 14.6214C53.7976 14.9595 53.8904 15.3821 53.8904 15.8892V21H52.1603V19.951H52.1007C51.9913 20.1631 51.8372 20.362 51.6383 20.5476C51.4428 20.7299 51.1958 20.8774 50.8975 20.9901C50.6026 21.0994 50.2562 21.1541 49.8585 21.1541ZM50.3258 19.8317C50.6871 19.8317 51.0003 19.7604 51.2654 19.6179C51.5306 19.4721 51.7344 19.2798 51.877 19.0412C52.0228 18.8026 52.0957 18.5424 52.0957 18.2607V17.3608C52.0394 17.4072 51.9432 17.4503 51.8074 17.4901C51.6748 17.5298 51.5256 17.5646 51.3599 17.5945C51.1942 17.6243 51.0301 17.6508 50.8677 17.674C50.7053 17.6972 50.5645 17.7171 50.4451 17.7337C50.1767 17.7701 49.9364 17.8298 49.7243 17.9126C49.5121 17.9955 49.3448 18.1115 49.2221 18.2607C49.0995 18.4065 49.0382 18.5954 49.0382 18.8274C49.0382 19.1589 49.1592 19.4091 49.4011 19.5781C49.6431 19.7472 49.9513 19.8317 50.3258 19.8317ZM57.4998 16.5256V21H55.7001V13.3636H57.4203V14.6612H57.5098C57.6854 14.2337 57.9655 13.8939 58.35 13.642C58.7377 13.3902 59.2167 13.2642 59.7868 13.2642C60.3137 13.2642 60.7728 13.3769 61.1639 13.6023C61.5583 13.8277 61.8632 14.1541 62.0787 14.5817C62.2974 15.0092 62.4051 15.5279 62.4018 16.1378V21H60.6021V16.4162C60.6021 15.9058 60.4695 15.5064 60.2044 15.218C59.9425 14.9297 59.5796 14.7855 59.1156 14.7855C58.8007 14.7855 58.5207 14.8551 58.2754 14.9943C58.0334 15.1302 57.8429 15.3274 57.7037 15.5859C57.5678 15.8445 57.4998 16.1577 57.4998 16.5256ZM70.2669 15.3821L68.6262 15.5611C68.5798 15.3954 68.4986 15.2396 68.3826 15.0938C68.2699 14.9479 68.1175 14.8303 67.9252 14.7408C67.733 14.6513 67.4977 14.6065 67.2193 14.6065C66.8448 14.6065 66.5299 14.6877 66.2747 14.8501C66.0228 15.0125 65.8985 15.223 65.9018 15.4815C65.8985 15.7036 65.9797 15.8842 66.1454 16.0234C66.3145 16.1626 66.5929 16.277 66.9806 16.3665L68.2832 16.6449C69.0057 16.8007 69.5427 17.0476 69.894 17.3857C70.2486 17.7237 70.4276 18.1662 70.4309 18.7131C70.4276 19.1937 70.2868 19.6179 70.0083 19.9858C69.7333 20.3504 69.3504 20.6354 68.8599 20.8409C68.3694 21.0464 67.8059 21.1491 67.1696 21.1491C66.2349 21.1491 65.4825 20.9536 64.9125 20.5625C64.3424 20.1681 64.0027 19.6196 63.8933 18.9169L65.6483 18.7479C65.7278 19.0926 65.8968 19.3527 66.1554 19.5284C66.4139 19.7041 66.7503 19.7919 67.1646 19.7919C67.5922 19.7919 67.9352 19.7041 68.1937 19.5284C68.4556 19.3527 68.5865 19.1357 68.5865 18.8771C68.5865 18.6584 68.502 18.4777 68.3329 18.3352C68.1672 18.1927 67.9087 18.0833 67.5574 18.0071L66.2548 17.7337C65.5223 17.5812 64.9804 17.3243 64.6291 16.9631C64.2778 16.5985 64.1038 16.1378 64.1071 15.581C64.1038 15.1103 64.2314 14.7027 64.4899 14.358C64.7517 14.0099 65.1146 13.7415 65.5787 13.5526C66.046 13.3603 66.5846 13.2642 67.1944 13.2642C68.0893 13.2642 68.7936 13.4548 69.3074 13.8359C69.8244 14.2171 70.1442 14.7325 70.2669 15.3821ZM74.1124 21.1541C73.6285 21.1541 73.1926 21.0679 72.8049 20.8956C72.4204 20.7199 72.1155 20.4614 71.8901 20.12C71.668 19.7786 71.557 19.3577 71.557 18.8572C71.557 18.4264 71.6365 18.0701 71.7956 17.7884C71.9547 17.5066 72.1718 17.2812 72.4469 17.1122C72.722 16.9432 73.0319 16.8156 73.3766 16.7294C73.7246 16.6399 74.0842 16.5753 74.4554 16.5355C74.9029 16.4891 75.2658 16.4477 75.5442 16.4112C75.8226 16.3714 76.0248 16.3118 76.1507 16.2322C76.28 16.1494 76.3446 16.0218 76.3446 15.8494V15.8196C76.3446 15.4451 76.2336 15.1551 76.0115 14.9496C75.7895 14.7441 75.4696 14.6413 75.052 14.6413C74.6112 14.6413 74.2615 14.7375 74.003 14.9297C73.7478 15.1219 73.5755 15.349 73.486 15.6108L71.8056 15.3722C71.9382 14.9081 72.1569 14.5204 72.4618 14.2088C72.7667 13.8939 73.1396 13.6586 73.5804 13.5028C74.0212 13.3438 74.5085 13.2642 75.0421 13.2642C75.41 13.2642 75.7762 13.3073 76.1408 13.3935C76.5054 13.4796 76.8385 13.6222 77.1401 13.821C77.4417 14.0166 77.6837 14.2834 77.8659 14.6214C78.0516 14.9595 78.1444 15.3821 78.1444 15.8892V21H76.4142V19.951H76.3546C76.2452 20.1631 76.0911 20.362 75.8922 20.5476C75.6967 20.7299 75.4498 20.8774 75.1515 20.9901C74.8565 21.0994 74.5101 21.1541 74.1124 21.1541ZM74.5797 19.8317C74.941 19.8317 75.2542 19.7604 75.5194 19.6179C75.7845 19.4721 75.9883 19.2798 76.1309 19.0412C76.2767 18.8026 76.3496 18.5424 76.3496 18.2607V17.3608C76.2933 17.4072 76.1971 17.4503 76.0613 17.4901C75.9287 17.5298 75.7795 17.5646 75.6138 17.5945C75.4481 17.6243 75.284 17.6508 75.1216 17.674C74.9592 17.6972 74.8184 17.7171 74.699 17.7337C74.4306 17.7701 74.1903 17.8298 73.9782 17.9126C73.766 17.9955 73.5987 18.1115 73.476 18.2607C73.3534 18.4065 73.2921 18.5954 73.2921 18.8274C73.2921 19.1589 73.4131 19.4091 73.655 19.5781C73.897 19.7472 74.2052 19.8317 74.5797 19.8317ZM83.285 21.1491C82.5227 21.1491 81.8681 20.9818 81.3212 20.647C80.7776 20.3123 80.3584 19.8499 80.0634 19.2599C79.7717 18.6667 79.6259 17.9839 79.6259 17.2116C79.6259 16.4361 79.775 15.7517 80.0733 15.1584C80.3716 14.5618 80.7926 14.0978 81.3361 13.7663C81.883 13.4316 82.5293 13.2642 83.275 13.2642C83.8948 13.2642 84.4434 13.3786 84.9206 13.6072C85.4012 13.8326 85.784 14.1525 86.0691 14.5668C86.3541 14.9777 86.5165 15.4583 86.5563 16.0085H84.8361C84.7665 15.6406 84.6008 15.334 84.339 15.0888C84.0804 14.8402 83.7341 14.7159 83.2999 14.7159C82.932 14.7159 82.6088 14.8153 82.3304 15.0142C82.052 15.2098 81.8349 15.4915 81.6792 15.8594C81.5267 16.2273 81.4505 16.6681 81.4505 17.1818C81.4505 17.7022 81.5267 18.1496 81.6792 18.5241C81.8316 18.8954 82.0454 19.1821 82.3205 19.3842C82.5989 19.5831 82.9254 19.6825 83.2999 19.6825C83.565 19.6825 83.802 19.6328 84.0108 19.5334C84.223 19.4306 84.4003 19.2831 84.5428 19.0909C84.6853 18.8987 84.7831 18.665 84.8361 18.3899H86.5563C86.5132 18.9302 86.3541 19.4091 86.079 19.8267C85.8039 20.241 85.4294 20.5658 84.9554 20.8011C84.4815 21.0331 83.9247 21.1491 83.285 21.1491ZM91.8473 13.3636V14.7557H87.4574V13.3636H91.8473ZM88.5412 11.5341H90.3409V18.7031C90.3409 18.9451 90.3774 19.1307 90.4503 19.2599C90.5265 19.3859 90.6259 19.4721 90.7486 19.5185C90.8712 19.5649 91.0071 19.5881 91.1562 19.5881C91.2689 19.5881 91.3717 19.5798 91.4645 19.5632C91.5606 19.5466 91.6335 19.5317 91.6832 19.5185L91.9865 20.9254C91.8904 20.9586 91.7528 20.995 91.5739 21.0348C91.3982 21.0746 91.1828 21.0978 90.9276 21.1044C90.4768 21.1177 90.0708 21.0497 89.7095 20.9006C89.3482 20.7481 89.0616 20.5128 88.8494 20.1946C88.6406 19.8764 88.5379 19.4787 88.5412 19.0014V11.5341ZM93.3525 21V13.3636H95.1522V21H93.3525ZM94.2573 12.2798C93.9722 12.2798 93.727 12.1854 93.5215 11.9964C93.316 11.8042 93.2132 11.5739 93.2132 11.3054C93.2132 11.0336 93.316 10.8033 93.5215 10.6143C93.727 10.4221 93.9722 10.326 94.2573 10.326C94.5456 10.326 94.7909 10.4221 94.9931 10.6143C95.1986 10.8033 95.3013 11.0336 95.3013 11.3054C95.3013 11.5739 95.1986 11.8042 94.9931 11.9964C94.7909 12.1854 94.5456 12.2798 94.2573 12.2798ZM100.334 21.1491C99.5881 21.1491 98.9418 20.9851 98.3949 20.657C97.848 20.3288 97.4238 19.8698 97.1222 19.2798C96.8239 18.6899 96.6747 18.0005 96.6747 17.2116C96.6747 16.4228 96.8239 15.7318 97.1222 15.1385C97.4238 14.5452 97.848 14.0845 98.3949 13.7564C98.9418 13.4283 99.5881 13.2642 100.334 13.2642C101.08 13.2642 101.726 13.4283 102.273 13.7564C102.82 14.0845 103.242 14.5452 103.54 15.1385C103.842 15.7318 103.993 16.4228 103.993 17.2116C103.993 18.0005 103.842 18.6899 103.54 19.2798C103.242 19.8698 102.82 20.3288 102.273 20.657C101.726 20.9851 101.08 21.1491 100.334 21.1491ZM100.344 19.7074C100.748 19.7074 101.086 19.5964 101.358 19.3743C101.63 19.1489 101.832 18.8473 101.964 18.4695C102.1 18.0916 102.168 17.6707 102.168 17.2067C102.168 16.7393 102.1 16.3168 101.964 15.9389C101.832 15.5578 101.63 15.2545 101.358 15.0291C101.086 14.8037 100.748 14.6911 100.344 14.6911C99.9295 14.6911 99.5848 14.8037 99.3097 15.0291C99.0379 15.2545 98.834 15.5578 98.6982 15.9389C98.5656 16.3168 98.4993 16.7393 98.4993 17.2067C98.4993 17.6707 98.5656 18.0916 98.6982 18.4695C98.834 18.8473 99.0379 19.1489 99.3097 19.3743C99.5848 19.5964 99.9295 19.7074 100.344 19.7074ZM107.32 16.5256V21H105.52V13.3636H107.241V14.6612H107.33C107.506 14.2337 107.786 13.8939 108.17 13.642C108.558 13.3902 109.037 13.2642 109.607 13.2642C110.134 13.2642 110.593 13.3769 110.984 13.6023C111.379 13.8277 111.684 14.1541 111.899 14.5817C112.118 15.0092 112.225 15.5279 112.222 16.1378V21H110.422V16.4162C110.422 15.9058 110.29 15.5064 110.025 15.218C109.763 14.9297 109.4 14.7855 108.936 14.7855C108.621 14.7855 108.341 14.8551 108.096 14.9943C107.854 15.1302 107.663 15.3274 107.524 15.5859C107.388 15.8445 107.32 16.1577 107.32 16.5256Z" fill="#8C89B4"/>
</svg>
