<svg width="146" height="31" viewBox="0 0 146 31" fill="none" xmlns="http://www.w3.org/2000/svg">
<rect width="146" height="31" rx="8.66947" fill="#8C89B4" fill-opacity="0.15"/>
<path d="M22.6312 21V10.8182H29.1539V12.3643H24.4757V15.1286H28.7065V16.6747H24.4757V21H22.6312ZM30.7548 21V13.3636H32.5545V21H30.7548ZM31.6596 12.2798C31.3746 12.2798 31.1293 12.1854 30.9238 11.9964C30.7183 11.8042 30.6156 11.5739 30.6156 11.3054C30.6156 11.0336 30.7183 10.8033 30.9238 10.6143C31.1293 10.4221 31.3746 10.326 31.6596 10.326C31.948 10.326 32.1932 10.4221 32.3954 10.6143C32.6009 10.8033 32.7037 11.0336 32.7037 11.3054C32.7037 11.5739 32.6009 11.8042 32.3954 11.9964C32.1932 12.1854 31.948 12.2798 31.6596 12.2798ZM34.4052 21V13.3636H36.1502V14.6364H36.2298C36.369 14.1955 36.6076 13.8558 36.9457 13.6172C37.2871 13.3752 37.6765 13.2543 38.114 13.2543C38.2134 13.2543 38.3245 13.2592 38.4471 13.2692C38.573 13.2758 38.6774 13.2874 38.7603 13.304V14.9595C38.6841 14.933 38.5631 14.9098 38.3974 14.8899C38.235 14.8667 38.0775 14.8551 37.9251 14.8551C37.5969 14.8551 37.302 14.9264 37.0401 15.0689C36.7816 15.2081 36.5778 15.402 36.4286 15.6506C36.2795 15.8991 36.2049 16.1858 36.2049 16.5107V21H34.4052ZM43.0222 21.1491C42.2566 21.1491 41.5953 20.9901 41.0385 20.6719C40.485 20.3504 40.0591 19.8963 39.7608 19.3097C39.4625 18.7197 39.3134 18.0253 39.3134 17.2266C39.3134 16.4411 39.4625 15.7517 39.7608 15.1584C40.0624 14.5618 40.4834 14.0978 41.0236 13.7663C41.5639 13.4316 42.1986 13.2642 42.9277 13.2642C43.3984 13.2642 43.8425 13.3404 44.2601 13.4929C44.681 13.642 45.0523 13.8741 45.3738 14.1889C45.6986 14.5038 45.9538 14.9048 46.1394 15.392C46.325 15.8759 46.4178 16.4527 46.4178 17.1222V17.674H40.1586V16.4609H44.6926C44.6893 16.1162 44.6148 15.8097 44.4689 15.5412C44.3231 15.2694 44.1193 15.0556 43.8574 14.8999C43.5989 14.7441 43.2973 14.6662 42.9526 14.6662C42.5847 14.6662 42.2615 14.7557 41.9831 14.9347C41.7047 15.1103 41.4876 15.3423 41.3319 15.6307C41.1794 15.9157 41.1015 16.2289 41.0982 16.5703V17.6293C41.0982 18.0734 41.1794 18.4545 41.3418 18.7727C41.5042 19.0876 41.7312 19.3295 42.0229 19.4986C42.3146 19.6643 42.656 19.7472 43.0471 19.7472C43.3089 19.7472 43.5459 19.7107 43.758 19.6378C43.9701 19.5616 44.1541 19.4505 44.3098 19.3047C44.4656 19.1589 44.5833 18.9782 44.6628 18.7628L46.3432 18.9517C46.2372 19.3958 46.035 19.7836 45.7367 20.1151C45.4417 20.4432 45.0639 20.6984 44.6032 20.8807C44.1425 21.0597 43.6155 21.1491 43.0222 21.1491ZM49.4753 21L47.3176 13.3636H49.1522L50.4945 18.733H50.5641L51.9363 13.3636H53.7509L55.123 18.7031H55.1976L56.5201 13.3636H58.3596L56.1969 21H54.3226L52.8908 15.8395H52.7864L51.3546 21H49.4753ZM61.8136 21.1541C61.3297 21.1541 60.8938 21.0679 60.506 20.8956C60.1216 20.7199 59.8166 20.4614 59.5913 20.12C59.3692 19.7786 59.2582 19.3577 59.2582 18.8572C59.2582 18.4264 59.3377 18.0701 59.4968 17.7884C59.6559 17.5066 59.873 17.2812 60.1481 17.1122C60.4232 16.9432 60.7331 16.8156 61.0778 16.7294C61.4258 16.6399 61.7854 16.5753 62.1566 16.5355C62.604 16.4891 62.967 16.4477 63.2454 16.4112C63.5238 16.3714 63.726 16.3118 63.8519 16.2322C63.9812 16.1494 64.0458 16.0218 64.0458 15.8494V15.8196C64.0458 15.4451 63.9348 15.1551 63.7127 14.9496C63.4906 14.7441 63.1708 14.6413 62.7532 14.6413C62.3124 14.6413 61.9627 14.7375 61.7042 14.9297C61.449 15.1219 61.2766 15.349 61.1871 15.6108L59.5067 15.3722C59.6393 14.9081 59.8581 14.5204 60.163 14.2088C60.4679 13.8939 60.8408 13.6586 61.2816 13.5028C61.7224 13.3438 62.2096 13.2642 62.7433 13.2642C63.1112 13.2642 63.4774 13.3073 63.842 13.3935C64.2066 13.4796 64.5397 13.6222 64.8413 13.821C65.1429 14.0166 65.3848 14.2834 65.5671 14.6214C65.7527 14.9595 65.8455 15.3821 65.8455 15.8892V21H64.1154V19.951H64.0558C63.9464 20.1631 63.7923 20.362 63.5934 20.5476C63.3978 20.7299 63.1509 20.8774 62.8526 20.9901C62.5576 21.0994 62.2113 21.1541 61.8136 21.1541ZM62.2809 19.8317C62.6422 19.8317 62.9554 19.7604 63.2205 19.6179C63.4857 19.4721 63.6895 19.2798 63.832 19.0412C63.9779 18.8026 64.0508 18.5424 64.0508 18.2607V17.3608C63.9944 17.4072 63.8983 17.4503 63.7624 17.4901C63.6299 17.5298 63.4807 17.5646 63.315 17.5945C63.1493 17.6243 62.9852 17.6508 62.8228 17.674C62.6604 17.6972 62.5195 17.7171 62.4002 17.7337C62.1317 17.7701 61.8915 17.8298 61.6793 17.9126C61.4672 17.9955 61.2998 18.1115 61.1772 18.2607C61.0546 18.4065 60.9933 18.5954 60.9933 18.8274C60.9933 19.1589 61.1142 19.4091 61.3562 19.5781C61.5981 19.7472 61.9064 19.8317 62.2809 19.8317ZM69.4549 10.8182V21H67.6552V10.8182H69.4549ZM73.1053 10.8182V21H71.3056V10.8182H73.1053ZM82.2418 13.3636V14.7557H77.8519V13.3636H82.2418ZM78.9357 11.5341H80.7354V18.7031C80.7354 18.9451 80.7719 19.1307 80.8448 19.2599C80.921 19.3859 81.0205 19.4721 81.1431 19.5185C81.2657 19.5649 81.4016 19.5881 81.5508 19.5881C81.6635 19.5881 81.7662 19.5798 81.859 19.5632C81.9551 19.5466 82.0281 19.5317 82.0778 19.5185L82.381 20.9254C82.2849 20.9586 82.1474 20.995 81.9684 21.0348C81.7927 21.0746 81.5773 21.0978 81.3221 21.1044C80.8713 21.1177 80.4653 21.0497 80.104 20.9006C79.7428 20.7481 79.4561 20.5128 79.244 20.1946C79.0352 19.8764 78.9324 19.4787 78.9357 19.0014V11.5341ZM83.747 21V13.3636H85.492V14.6364H85.5716C85.7108 14.1955 85.9494 13.8558 86.2875 13.6172C86.6288 13.3752 87.0183 13.2543 87.4558 13.2543C87.5552 13.2543 87.6663 13.2592 87.7889 13.2692C87.9148 13.2758 88.0192 13.2874 88.1021 13.304V14.9595C88.0259 14.933 87.9049 14.9098 87.7392 14.8899C87.5768 14.8667 87.4193 14.8551 87.2669 14.8551C86.9387 14.8551 86.6438 14.9264 86.3819 15.0689C86.1234 15.2081 85.9196 15.402 85.7704 15.6506C85.6213 15.8991 85.5467 16.1858 85.5467 16.5107V21H83.747ZM89.2978 21V13.3636H91.0975V21H89.2978ZM90.2026 12.2798C89.9176 12.2798 89.6723 12.1854 89.4668 11.9964C89.2613 11.8042 89.1586 11.5739 89.1586 11.3054C89.1586 11.0336 89.2613 10.8033 89.4668 10.6143C89.6723 10.4221 89.9176 10.326 90.2026 10.326C90.4909 10.326 90.7362 10.4221 90.9384 10.6143C91.1439 10.8033 91.2466 11.0336 91.2466 11.3054C91.2466 11.5739 91.1439 11.8042 90.9384 11.9964C90.7362 12.1854 90.4909 12.2798 90.2026 12.2798ZM96.2692 24.0227C95.6229 24.0227 95.0677 23.9349 94.6037 23.7592C94.1397 23.5869 93.7668 23.3549 93.4851 23.0632C93.2034 22.7715 93.0078 22.4484 92.8984 22.0938L94.5192 21.701C94.5921 21.8501 94.6982 21.9976 94.8374 22.1435C94.9766 22.2926 95.1638 22.4152 95.3991 22.5114C95.6378 22.6108 95.9377 22.6605 96.299 22.6605C96.8094 22.6605 97.232 22.5362 97.5668 22.2876C97.9015 22.0424 98.0689 21.638 98.0689 21.0746V19.6278H97.9794C97.8866 19.8134 97.7507 20.004 97.5717 20.1996C97.3961 20.3951 97.1624 20.5592 96.8707 20.6918C96.5824 20.8243 96.2195 20.8906 95.782 20.8906C95.1953 20.8906 94.6634 20.7531 94.1861 20.478C93.7121 20.1996 93.3343 19.7853 93.0526 19.2351C92.7741 18.6816 92.6349 17.9889 92.6349 17.157C92.6349 16.3184 92.7741 15.6108 93.0526 15.0341C93.3343 14.4541 93.7138 14.0149 94.1911 13.7166C94.6683 13.415 95.2003 13.2642 95.7869 13.2642C96.2344 13.2642 96.6023 13.3404 96.8906 13.4929C97.1823 13.642 97.4143 13.8227 97.5866 14.0348C97.759 14.2436 97.8899 14.4408 97.9794 14.6264H98.0788V13.3636H99.8537V21.1243C99.8537 21.7772 99.6979 22.3175 99.3864 22.745C99.0748 23.1726 98.6489 23.4924 98.1087 23.7045C97.5684 23.9167 96.9553 24.0227 96.2692 24.0227ZM96.2841 19.4787C96.6652 19.4787 96.9901 19.3859 97.2585 19.2003C97.527 19.0147 97.7308 18.7479 97.87 18.3999C98.0092 18.0518 98.0788 17.6342 98.0788 17.147C98.0788 16.6664 98.0092 16.2455 97.87 15.8842C97.7341 15.523 97.532 15.2429 97.2635 15.044C96.9983 14.8419 96.6719 14.7408 96.2841 14.7408C95.883 14.7408 95.5483 14.8452 95.2798 15.054C95.0114 15.2628 94.8092 15.5495 94.6733 15.9141C94.5374 16.2753 94.4695 16.6863 94.4695 17.147C94.4695 17.6143 94.5374 18.0237 94.6733 18.375C94.8125 18.723 95.0163 18.9948 95.2848 19.1903C95.5566 19.3826 95.8897 19.4787 96.2841 19.4787ZM105.019 24.0227C104.373 24.0227 103.818 23.9349 103.354 23.7592C102.89 23.5869 102.517 23.3549 102.235 23.0632C101.953 22.7715 101.758 22.4484 101.648 22.0938L103.269 21.701C103.342 21.8501 103.448 21.9976 103.587 22.1435C103.727 22.2926 103.914 22.4152 104.149 22.5114C104.388 22.6108 104.688 22.6605 105.049 22.6605C105.559 22.6605 105.982 22.5362 106.317 22.2876C106.652 22.0424 106.819 21.638 106.819 21.0746V19.6278H106.729C106.637 19.8134 106.501 20.004 106.322 20.1996C106.146 20.3951 105.912 20.5592 105.621 20.6918C105.332 20.8243 104.969 20.8906 104.532 20.8906C103.945 20.8906 103.413 20.7531 102.936 20.478C102.462 20.1996 102.084 19.7853 101.803 19.2351C101.524 18.6816 101.385 17.9889 101.385 17.157C101.385 16.3184 101.524 15.6108 101.803 15.0341C102.084 14.4541 102.464 14.0149 102.941 13.7166C103.418 13.415 103.95 13.2642 104.537 13.2642C104.984 13.2642 105.352 13.3404 105.641 13.4929C105.932 13.642 106.164 13.8227 106.337 14.0348C106.509 14.2436 106.64 14.4408 106.729 14.6264H106.829V13.3636H108.604V21.1243C108.604 21.7772 108.448 22.3175 108.136 22.745C107.825 23.1726 107.399 23.4924 106.859 23.7045C106.318 23.9167 105.705 24.0227 105.019 24.0227ZM105.034 19.4787C105.415 19.4787 105.74 19.3859 106.009 19.2003C106.277 19.0147 106.481 18.7479 106.62 18.3999C106.759 18.0518 106.829 17.6342 106.829 17.147C106.829 16.6664 106.759 16.2455 106.62 15.8842C106.484 15.523 106.282 15.2429 106.013 15.044C105.748 14.8419 105.422 14.7408 105.034 14.7408C104.633 14.7408 104.298 14.8452 104.03 15.054C103.761 15.2628 103.559 15.5495 103.423 15.9141C103.287 16.2753 103.219 16.6863 103.219 17.147C103.219 17.6143 103.287 18.0237 103.423 18.375C103.563 18.723 103.766 18.9948 104.035 19.1903C104.307 19.3826 104.64 19.4787 105.034 19.4787ZM113.829 21.1491C113.063 21.1491 112.402 20.9901 111.845 20.6719C111.292 20.3504 110.866 19.8963 110.567 19.3097C110.269 18.7197 110.12 18.0253 110.12 17.2266C110.12 16.4411 110.269 15.7517 110.567 15.1584C110.869 14.5618 111.29 14.0978 111.83 13.7663C112.371 13.4316 113.005 13.2642 113.734 13.2642C114.205 13.2642 114.649 13.3404 115.067 13.4929C115.488 13.642 115.859 13.8741 116.18 14.1889C116.505 14.5038 116.76 14.9048 116.946 15.392C117.132 15.8759 117.224 16.4527 117.224 17.1222V17.674H110.965V16.4609H115.499C115.496 16.1162 115.421 15.8097 115.276 15.5412C115.13 15.2694 114.926 15.0556 114.664 14.8999C114.406 14.7441 114.104 14.6662 113.759 14.6662C113.391 14.6662 113.068 14.7557 112.79 14.9347C112.511 15.1103 112.294 15.3423 112.138 15.6307C111.986 15.9157 111.908 16.2289 111.905 16.5703V17.6293C111.905 18.0734 111.986 18.4545 112.148 18.7727C112.311 19.0876 112.538 19.3295 112.83 19.4986C113.121 19.6643 113.463 19.7472 113.854 19.7472C114.116 19.7472 114.353 19.7107 114.565 19.6378C114.777 19.5616 114.961 19.4505 115.116 19.3047C115.272 19.1589 115.39 18.9782 115.469 18.7628L117.15 18.9517C117.044 19.3958 116.842 19.7836 116.543 20.1151C116.248 20.4432 115.871 20.6984 115.41 20.8807C114.949 21.0597 114.422 21.1491 113.829 21.1491ZM118.747 21V13.3636H120.492V14.6364H120.572C120.711 14.1955 120.949 13.8558 121.287 13.6172C121.629 13.3752 122.018 13.2543 122.456 13.2543C122.555 13.2543 122.666 13.2592 122.789 13.2692C122.915 13.2758 123.019 13.2874 123.102 13.304V14.9595C123.026 14.933 122.905 14.9098 122.739 14.8899C122.577 14.8667 122.419 14.8551 122.267 14.8551C121.939 14.8551 121.644 14.9264 121.382 15.0689C121.123 15.2081 120.92 15.402 120.77 15.6506C120.621 15.8991 120.547 16.1858 120.547 16.5107V21H118.747Z" fill="#8C89B4"/>
</svg>
